<svg width="50" height="50" viewBox="0 0 50 50" fill="none" xmlns="http://www.w3.org/2000/svg">
<path d="M43.8557 0H6.14448C2.75639 0 0 2.75639 0 6.14431V43.8557C0 47.2438 2.75639 50 6.14431 50C6.70613 50 7.1618 49.5443 7.1618 48.9825C7.1618 48.4207 6.70613 47.965 6.14431 47.965C3.87852 47.9652 2.03499 46.1217 2.03499 43.8557V6.14431C2.03499 3.87852 3.87852 2.03499 6.14448 2.03499H43.8557C46.1217 2.03499 47.965 3.87852 47.965 6.14431V43.8557C47.965 46.1217 46.1217 47.965 43.8557 47.965H17.0298C16.468 47.965 16.0123 48.4207 16.0123 48.9825C16.0123 49.5443 16.468 50 17.0298 50H43.8557C47.2438 50 50 47.2436 50 43.8557V6.14431C50.0002 2.75639 47.2438 0 43.8557 0Z" fill="#FF931A"/>
<path d="M16.38 15V36H14.22V16.92H9.27V15H16.38ZM32.5598 36.18C30.4798 36.18 28.5998 35.72 26.9198 34.8C25.2598 33.88 23.9498 32.61 22.9898 30.99C22.0498 29.35 21.5798 27.52 21.5798 25.5C21.5798 23.48 22.0498 21.66 22.9898 20.04C23.9498 18.4 25.2698 17.12 26.9498 16.2C28.6298 15.28 30.5098 14.82 32.5898 14.82C34.1498 14.82 35.5898 15.08 36.9098 15.6C38.2298 16.12 39.3498 16.88 40.2698 17.88L38.8598 19.29C37.2198 17.63 35.1498 16.8 32.6498 16.8C30.9898 16.8 29.4798 17.18 28.1198 17.94C26.7598 18.7 25.6898 19.74 24.9098 21.06C24.1498 22.38 23.7698 23.86 23.7698 25.5C23.7698 27.14 24.1498 28.62 24.9098 29.94C25.6898 31.26 26.7598 32.3 28.1198 33.06C29.4798 33.82 30.9898 34.2 32.6498 34.2C35.1698 34.2 37.2398 33.36 38.8598 31.68L40.2698 33.09C39.3498 34.09 38.2198 34.86 36.8798 35.4C35.5598 35.92 34.1198 36.18 32.5598 36.18Z" fill="#FF931A"/>
</svg>
