<svg width="58" height="49" viewBox="0 0 58 49" fill="none" xmlns="http://www.w3.org/2000/svg">
<path d="M20.2228 14V35H18.0628V15.92H13.1128V14H20.2228ZM36.4026 35.18C34.3226 35.18 32.4426 34.72 30.7626 33.8C29.1026 32.88 27.7926 31.61 26.8326 29.99C25.8926 28.35 25.4226 26.52 25.4226 24.5C25.4226 22.48 25.8926 20.66 26.8326 19.04C27.7926 17.4 29.1126 16.12 30.7926 15.2C32.4726 14.28 34.3526 13.82 36.4326 13.82C37.9926 13.82 39.4326 14.08 40.7526 14.6C42.0726 15.12 43.1926 15.88 44.1126 16.88L42.7026 18.29C41.0626 16.63 38.9926 15.8 36.4926 15.8C34.8326 15.8 33.3226 16.18 31.9626 16.94C30.6026 17.7 29.5326 18.74 28.7526 20.06C27.9926 21.38 27.6126 22.86 27.6126 24.5C27.6126 26.14 27.9926 27.62 28.7526 28.94C29.5326 30.26 30.6026 31.3 31.9626 32.06C33.3226 32.82 34.8326 33.2 36.4926 33.2C39.0126 33.2 41.0826 32.36 42.7026 30.68L44.1126 32.09C43.1926 33.09 42.0626 33.86 40.7226 34.4C39.4026 34.92 37.9626 35.18 36.4026 35.18Z" fill="#FF931A"/>
<rect x="6" y="10" width="8" height="2" rx="1" transform="rotate(90 6 10)" fill="#FF931A"/>
<rect x="49.9023" y="9.70312" width="9.00236" height="2" rx="1" transform="rotate(60 49.9023 9.70312)" fill="#FF931A"/>
<rect x="57.9023" y="10.7031" width="9.00218" height="2" rx="1" transform="rotate(120 57.9023 10.7031)" fill="#FF931A"/>
<path fill-rule="evenodd" clip-rule="evenodd" d="M10 2H48C50.2091 2 52 3.79086 52 6V17H54V6C54 2.68629 51.3137 0 48 0H10C6.68629 0 4 2.68629 4 6V17H6V6C6 3.79086 7.79086 2 10 2Z" fill="#FF931A"/>
<rect x="51.9023" y="38.4995" width="8" height="2" rx="1" transform="rotate(-90 51.9023 38.4995)" fill="#FF931A"/>
<rect x="8" y="38.7964" width="9.00236" height="2" rx="1" transform="rotate(-120 8 38.7964)" fill="#FF931A"/>
<rect y="37.7964" width="9.00218" height="2" rx="1" transform="rotate(-60 0 37.7964)" fill="#FF931A"/>
<path fill-rule="evenodd" clip-rule="evenodd" d="M47.9023 46.4995L9.90234 46.4995C7.69321 46.4995 5.90234 44.7086 5.90234 42.4995L5.90235 31.4995L3.90235 31.4995L3.90234 42.4995C3.90234 45.8132 6.58863 48.4995 9.90234 48.4995L47.9023 48.4995C51.2161 48.4995 53.9023 45.8132 53.9023 42.4995L53.9023 31.4995L51.9023 31.4995L51.9023 42.4995C51.9023 44.7087 50.1115 46.4995 47.9023 46.4995Z" fill="#FF931A"/>
</svg>
