<svg width="50" height="51" viewBox="0 0 50 51" fill="none" xmlns="http://www.w3.org/2000/svg">
<path d="M48.9823 40.9095C49.5442 40.9095 49.9998 40.4538 49.9998 39.892V13.8752C49.9998 6.76837 44.218 0.986328 37.111 0.986328H36.8712C31.5436 0.986328 26.9609 4.23567 24.9998 8.85642C23.039 4.23567 18.4562 0.986328 13.1285 0.986328H12.8887C5.78187 0.986328 0 6.76837 0 13.8752V49.9688C0 50.5307 0.455665 50.9863 1.01749 50.9863H1.03953C1.58711 50.9863 2.03633 50.553 2.05634 50.006C2.27035 44.1441 7.02829 39.5521 12.8887 39.5521H13.1285C18.9889 39.5521 23.747 44.1439 23.961 50.006C23.981 50.5532 24.4304 50.9863 24.9778 50.9863H24.9998H25.0219C25.5695 50.9863 26.0187 50.553 26.0387 50.006C26.2529 44.1441 31.011 39.5521 36.8712 39.5521H37.111C42.9714 39.5521 47.7293 44.1439 47.9433 50.006C47.9633 50.5532 48.4127 50.9863 48.9601 50.9863H48.9823C49.5442 50.9863 49.9998 50.5307 49.9998 49.9688C49.9998 49.8801 49.9885 49.794 49.9671 49.7118C49.7934 46.4524 48.411 43.4152 46.0598 41.1386C43.6478 38.8033 40.4697 37.5172 37.111 37.5172H36.8712C33.5125 37.5172 30.3343 38.8033 27.9224 41.1386C26.6516 42.3691 25.6666 43.8229 24.9998 45.4127C24.3329 43.8229 23.3481 42.3689 22.0773 41.1386C19.6653 38.8033 16.4872 37.5172 13.1285 37.5172H12.8887C9.52995 37.5172 6.352 38.8033 3.93988 41.1386C3.20882 41.8464 2.57153 42.6278 2.03497 43.4666V13.8752C2.03497 7.89032 6.90399 3.0213 12.8887 3.0213H13.1285C19.1133 3.0213 23.9823 7.89032 23.9823 13.8752V36.6699C23.9823 37.2318 24.438 37.6874 24.9998 37.6874C25.5617 37.6874 26.0173 37.2318 26.0173 36.6699V13.8752C26.0173 7.89032 30.8863 3.0213 36.8712 3.0213H37.111C43.0958 3.0213 47.9649 7.89032 47.9649 13.8752V39.892C47.9649 40.4538 48.4205 40.9095 48.9823 40.9095Z" fill="#FF931A"/>
</svg>
