<svg width="50" height="50" viewBox="0 0 50 50" fill="none" xmlns="http://www.w3.org/2000/svg">
<path d="M48.9827 45.0106C48.4209 45.0106 47.9652 45.4663 47.9652 46.0281V47.9649H2.03499V41.1829H48.9826C49.5444 41.1829 50.0001 40.7273 50.0001 40.1654C50.0001 39.6036 49.5444 39.1479 48.9826 39.1479H1.0175C0.455668 39.1479 0 39.6036 0 40.1654V48.9824C0 49.5442 0.455668 49.9999 1.0175 49.9999H48.9826C49.5444 49.9999 50.0001 49.5442 50.0001 48.9824V46.0281C50.0002 45.4663 49.5446 45.0106 48.9827 45.0106Z" fill="#FF931A"/>
<path d="M24.2798 34.504C24.4705 34.6948 24.7293 34.802 24.9993 34.802C25.2691 34.802 25.5279 34.6948 25.7187 34.504L38.6692 21.5533C39.0667 21.156 39.0667 20.5117 38.6692 20.1144C38.272 19.7171 37.6274 19.7171 37.2304 20.1144L24.9993 32.3455L12.7682 20.1144C12.3708 19.7171 11.7264 19.7171 11.3292 20.1144C10.9319 20.5117 10.9319 21.156 11.3292 21.5533L24.2798 34.504Z" fill="#FF931A"/>
<path d="M25.0019 29.07C25.5637 29.07 26.0194 28.6143 26.0194 28.0525V1.0175C26.0194 0.455668 25.5637 0 25.0019 0C24.44 0 23.9844 0.455668 23.9844 1.0175V28.0525C23.9844 28.6145 24.4399 29.07 25.0019 29.07Z" fill="#FF931A"/>
</svg>
