<svg width="50" height="51" viewBox="0 0 50 51" fill="none" xmlns="http://www.w3.org/2000/svg">
<path d="M48.9823 0.986328H1.01749C0.455666 0.986328 0 1.44199 0 2.00382V49.9688C0 50.5307 0.455666 50.9863 1.01749 50.9863H48.9823C49.5442 50.9863 49.9998 50.5307 49.9998 49.9688V2.00382C49.9998 1.44199 49.5443 0.986328 48.9823 0.986328ZM2.03498 48.9513V3.02131H47.9649V9.80322H5.49801C4.93619 9.80322 4.48052 10.2587 4.48052 10.8207C4.48052 11.3827 4.93619 11.8382 5.49801 11.8382H47.9649V48.9513H2.03498Z" fill="#FF931A"/>
<path d="M5.41423 7.42879C5.68217 7.42879 5.94502 7.32026 6.13496 7.13203C6.32302 6.94209 6.43172 6.68094 6.43172 6.413C6.43172 6.14506 6.32302 5.88221 6.13496 5.69228C5.94502 5.50404 5.68217 5.39551 5.41423 5.39551C5.14799 5.39551 4.88514 5.50404 4.69521 5.69228C4.50697 5.88221 4.39844 6.14506 4.39844 6.413C4.39844 6.68094 4.50697 6.94209 4.69521 7.13203C4.88514 7.32026 5.14629 7.42879 5.41423 7.42879Z" fill="#FF931A"/>
<path d="M8.80655 7.43023C9.07449 7.43023 9.33734 7.3217 9.52558 7.13177C9.71534 6.94184 9.82404 6.67898 9.82404 6.41105C9.82404 6.1448 9.71534 5.88195 9.52558 5.69202C9.33734 5.50209 9.07449 5.39355 8.80655 5.39355C8.53861 5.39355 8.27576 5.50209 8.08753 5.69202C7.89759 5.88195 7.78906 6.1448 7.78906 6.41105C7.78906 6.67898 7.89759 6.94184 8.08753 7.13177C8.27593 7.3217 8.53861 7.43023 8.80655 7.43023Z" fill="#FF931A"/>
<path d="M12.1955 7.42879C12.4633 7.42879 12.7263 7.32026 12.9162 7.13203C13.106 6.94209 13.2147 6.67924 13.2147 6.4113C13.2147 6.14506 13.106 5.88221 12.9162 5.69228C12.7263 5.50404 12.4633 5.39551 12.1955 5.39551C11.9275 5.39551 11.6664 5.50404 11.4765 5.69228C11.2882 5.88221 11.1797 6.14506 11.1797 6.4113C11.1797 6.67924 11.2882 6.94209 11.4765 7.13203C11.6664 7.32026 11.9275 7.42879 12.1955 7.42879Z" fill="#FF931A"/>
<path d="M41.8001 28.7092C41.2864 28.4825 40.6854 28.7152 40.4583 29.2292C37.7535 35.3573 31.6859 39.3169 25.0003 39.3169C18.4653 39.3169 12.5206 35.5337 9.72993 29.64C12.5206 23.7462 18.4653 19.963 25.0003 19.963C29.7385 19.963 34.2886 21.9756 37.4835 25.4846C37.8615 25.8999 38.5052 25.9303 38.9209 25.5519C39.3365 25.1736 39.3666 24.53 38.9882 24.1146C35.4087 20.183 30.31 17.9282 25.0003 17.9282C17.509 17.9282 10.7105 22.3641 7.68036 29.2293C7.56488 29.491 7.56488 29.7893 7.68036 30.0511C10.7105 36.9161 17.509 41.3522 25.0003 41.3522C32.4915 41.3522 39.2901 36.9163 42.3202 30.0511C42.5469 29.5368 42.3141 28.9361 41.8001 28.7092Z" fill="#FF931A"/>
<path d="M17.8984 29.6403C17.8984 33.5552 21.0835 36.7403 24.9985 36.7403C28.9135 36.7403 32.0985 33.5552 32.0985 29.6403C32.0985 25.7253 28.9135 22.54 24.9985 22.54C21.0835 22.54 17.8984 25.7251 17.8984 29.6403ZM30.0637 29.6403C30.0637 32.4331 27.7917 34.7053 24.9987 34.7053C22.2056 34.7053 19.9336 32.4331 19.9336 29.6403C19.9336 26.8472 22.2056 24.575 24.9987 24.575C27.7917 24.575 30.0637 26.8472 30.0637 29.6403Z" fill="#FF931A"/>
</svg>
