<svg width="43" height="51" viewBox="0 0 43 51" fill="none" xmlns="http://www.w3.org/2000/svg">
<path d="M41.7007 25.7847C41.0293 25.7847 40.4848 26.3269 40.4848 26.9954V48.5651H27.4368V35.025C27.4368 34.3565 26.8923 33.8143 26.2209 33.8143H16.696C16.0246 33.8143 15.48 34.3565 15.48 35.025V45.7613C15.48 46.4298 16.0246 46.972 16.696 46.972C17.3674 46.972 17.9119 46.4298 17.9119 45.7613V36.2357H25.0049V48.5651H2.4319V18.9309L21.4582 3.74885L40.9401 19.2943C41.4642 19.7126 42.2295 19.6283 42.6494 19.1066C43.0693 18.5848 42.985 17.8231 42.4609 17.4048L22.2186 1.25238C21.7744 0.897644 21.1421 0.897644 20.6979 1.25238L0.455575 17.4048C0.167598 17.6346 0 17.9819 0 18.3496V49.7756C0 50.4441 0.544339 50.9863 1.21595 50.9863H41.7007C42.3723 50.9863 42.9167 50.4441 42.9167 49.7756V26.9954C42.9167 26.3267 42.3723 25.7847 41.7007 25.7847Z" fill="#FF931A"/>
</svg>
