<svg width="50" height="50" viewBox="0 0 50 50" fill="none" xmlns="http://www.w3.org/2000/svg">
<path d="M48.9823 0C48.4205 0 47.9649 0.455666 47.9649 1.01749V8.8169H4.98927C4.42744 8.8169 3.97177 9.27256 3.97177 9.83439C3.97177 10.3962 4.42744 10.8519 4.98927 10.8519H47.9649V47.965H36.7294V16.3512C36.7294 15.7894 36.2737 15.3338 35.7119 15.3338C35.1501 15.3338 34.6944 15.7894 34.6944 16.3512V47.9649H2.03498V2.03498H42.6364C43.1982 2.03498 43.6539 1.57932 43.6539 1.01749C43.6539 0.455666 43.1982 0 42.6364 0H1.01749C0.455666 0 0 0.455666 0 1.01749V48.9825C0 49.5443 0.455666 50 1.01749 50H48.9823C49.5442 50 49.9998 49.5443 49.9998 48.9825V1.01749C49.9998 0.455666 49.5443 0 48.9823 0Z" fill="#FF931A"/>
<path d="M38.58 17.4598H46.0416C46.6034 17.4598 47.0591 17.0041 47.0591 16.4423C47.0591 15.8805 46.6034 15.4248 46.0416 15.4248H38.58C38.0182 15.4248 37.5625 15.8805 37.5625 16.4423C37.5625 17.0041 38.0182 17.4598 38.58 17.4598Z" fill="#FF931A"/>
<path d="M38.58 27.804H46.0416C46.6034 27.804 47.0591 27.3484 47.0591 26.7865C47.0591 26.2247 46.6034 25.769 46.0416 25.769H38.58C38.0182 25.769 37.5625 26.2247 37.5625 26.7865C37.5625 27.3484 38.0182 27.804 38.58 27.804Z" fill="#FF931A"/>
<path d="M38.58 22.6317H46.0416C46.6034 22.6317 47.0591 22.176 47.0591 21.6142C47.0591 21.0523 46.6034 20.5967 46.0416 20.5967H38.58C38.0182 20.5967 37.5625 21.0523 37.5625 21.6142C37.5625 22.176 38.0182 22.6317 38.58 22.6317Z" fill="#FF931A"/>
<path d="M38.58 32.9764H46.0416C46.6034 32.9764 47.0591 32.5207 47.0591 31.9589C47.0591 31.3971 46.6034 30.9414 46.0416 30.9414H38.58C38.0182 30.9414 37.5625 31.3971 37.5625 31.9589C37.5625 32.5207 38.0182 32.9764 38.58 32.9764Z" fill="#FF931A"/>
<path d="M38.58 43.3206H46.0416C46.6034 43.3206 47.0591 42.865 47.0591 42.3031C47.0591 41.7413 46.6034 41.2856 46.0416 41.2856H38.58C38.0182 41.2856 37.5625 41.7413 37.5625 42.3031C37.5625 42.865 38.0182 43.3206 38.58 43.3206Z" fill="#FF931A"/>
<path d="M38.58 38.1488H46.0416C46.6034 38.1488 47.0591 37.6931 47.0591 37.1313C47.0591 36.5694 46.6034 36.1138 46.0416 36.1138H38.58C38.0182 36.1138 37.5625 36.5694 37.5625 37.1313C37.5625 37.6931 38.0182 38.1488 38.58 38.1488Z" fill="#FF931A"/>
<path d="M4.69521 4.70595C4.50697 4.89588 4.39844 5.15704 4.39844 5.42667C4.39844 5.69461 4.50697 5.95577 4.69521 6.1457C4.88514 6.33393 5.14629 6.44416 5.41593 6.44416C5.68217 6.44416 5.94502 6.33393 6.13496 6.1457C6.32302 5.95577 6.43342 5.69461 6.43342 5.42667C6.43342 5.15704 6.32319 4.89588 6.13496 4.70595C5.94502 4.51771 5.68387 4.40918 5.41593 4.40918C5.14629 4.40918 4.88514 4.51771 4.69521 4.70595Z" fill="#FF931A"/>
<path d="M8.08753 4.70618C7.89759 4.89611 7.78906 5.15896 7.78906 5.42521C7.78906 5.69314 7.89759 5.956 8.08753 6.14593C8.27576 6.33416 8.53861 6.4427 8.80655 6.4427C9.07449 6.4427 9.33734 6.33416 9.52558 6.14593C9.71534 5.956 9.82404 5.69314 9.82404 5.42521C9.82404 5.15896 9.71534 4.89611 9.52558 4.70618C9.33565 4.51625 9.07449 4.40771 8.80655 4.40771C8.53861 4.40771 8.27746 4.51625 8.08753 4.70618Z" fill="#FF931A"/>
<path d="M11.4742 4.70618C11.286 4.89611 11.1758 5.15896 11.1758 5.4269C11.1758 5.69484 11.2858 5.956 11.4742 6.14593C11.6642 6.33586 11.927 6.44439 12.195 6.44439C12.461 6.44439 12.7241 6.33586 12.914 6.14593C13.1038 5.956 13.2125 5.69314 13.2125 5.4269C13.2125 5.15896 13.1038 4.89611 12.914 4.70618C12.7241 4.51794 12.461 4.40771 12.195 4.40771C11.927 4.40771 11.6643 4.51794 11.4742 4.70618Z" fill="#FF931A"/>
</svg>
