<svg width="50" height="50" viewBox="0 0 50 50" fill="none" xmlns="http://www.w3.org/2000/svg">
<path d="M42.6808 7.31402C32.9323 -2.43801 17.07 -2.43801 7.32154 7.31402C3.90119 10.7355 1.56154 15.034 0.555301 19.745C-0.424315 24.3321 -0.10343 29.0846 1.48319 33.4884C1.67382 34.0172 2.25708 34.2914 2.78556 34.1009C3.31437 33.9102 3.58845 33.3269 3.39782 32.7981C1.94009 28.7519 1.64533 24.3853 2.54557 20.1701C3.46939 15.8445 5.61857 11.8965 8.7606 8.75341C17.7157 -0.204779 32.2867 -0.204779 41.2418 8.75341C45.5064 13.0197 47.8937 18.6905 47.9637 24.7218C48.0338 30.742 45.791 36.4581 41.6488 40.817C41.5998 40.8686 41.5513 40.9205 41.5028 40.9724C41.417 41.0642 41.3313 41.1562 41.2418 41.2457C32.2867 50.2039 17.7157 50.2039 8.7606 41.2457C8.71295 41.1981 8.66648 41.1495 8.62051 41.101C8.61814 41.007 8.6161 40.9144 8.6161 40.8231C8.6161 40.6182 8.62 40.4141 8.62747 40.2107C8.63001 40.1426 8.6351 40.0753 8.63849 40.0074C8.64511 39.8722 8.65138 39.737 8.66122 39.6024C8.66715 39.5222 8.6758 39.4428 8.68293 39.3629C8.69361 39.2416 8.70362 39.1202 8.71685 38.9996C8.72617 38.9145 8.73839 38.83 8.74907 38.7451C8.76349 38.6306 8.77722 38.5158 8.79418 38.4017C8.80707 38.3149 8.82234 38.2289 8.83659 38.1425C8.85473 38.0314 8.87237 37.9202 8.89289 37.8098C8.909 37.7224 8.92749 37.6359 8.94513 37.549C8.96701 37.4406 8.98855 37.332 9.01263 37.2243C9.03214 37.1369 9.05384 37.0501 9.07471 36.9632C9.10015 36.8572 9.12542 36.7511 9.15289 36.6459C9.17579 36.5587 9.20055 36.4722 9.22463 36.3855C9.25363 36.2817 9.28247 36.1777 9.3135 36.0745C9.33945 35.988 9.36727 35.9021 9.39474 35.8163C9.42731 35.7143 9.45987 35.6122 9.4943 35.5111C9.52347 35.4257 9.554 35.3409 9.58453 35.2561C9.62065 35.1556 9.65695 35.0552 9.69494 34.9554C9.72716 34.8711 9.76057 34.7877 9.79415 34.704C9.83367 34.6054 9.87353 34.5069 9.91491 34.4091C9.95019 34.326 9.98648 34.2436 10.0231 34.1611C10.066 34.0642 10.1094 33.9677 10.1542 33.8718C10.1924 33.7902 10.2314 33.7091 10.2709 33.6282C10.3174 33.533 10.3644 33.438 10.4125 33.3439C10.4534 33.2641 10.4949 33.1847 10.5372 33.1057C10.587 33.012 10.6377 32.9187 10.6895 32.8259C10.7331 32.7478 10.7772 32.6701 10.8219 32.5929C10.8752 32.5012 10.9293 32.4099 10.9844 32.3189C11.0307 32.2426 11.0775 32.1666 11.125 32.0909C11.1817 32.001 11.2392 31.9116 11.2975 31.8229C11.3463 31.7484 11.3955 31.6742 11.4456 31.6006C11.5054 31.5124 11.5667 31.4252 11.6284 31.3381C11.6798 31.2657 11.7312 31.1934 11.7837 31.122C11.847 31.0358 11.9116 30.9505 11.9766 30.8656C12.0303 30.7954 12.0839 30.7252 12.1389 30.6558C12.2055 30.5714 12.2737 30.4881 12.3421 30.4052C12.3979 30.3373 12.4537 30.2695 12.5107 30.2024C12.5809 30.12 12.6526 30.0387 12.7245 29.9576C12.7825 29.8921 12.8402 29.8265 12.8992 29.762C12.9728 29.6816 13.048 29.6027 13.1233 29.5238C13.1833 29.4607 13.243 29.3974 13.304 29.3351C13.3812 29.2568 13.4601 29.1801 13.5388 29.103C13.6005 29.0428 13.6617 28.9819 13.7245 28.9225C13.8056 28.8458 13.8885 28.771 13.9711 28.696C14.0342 28.6389 14.0964 28.581 14.1604 28.5247C14.2457 28.4495 14.3332 28.3766 14.4202 28.3031C14.484 28.2493 14.5471 28.1947 14.6117 28.1418C14.7017 28.0681 14.794 27.9967 14.8859 27.9248C14.95 27.8747 15.0131 27.8235 15.0779 27.7743C15.1747 27.7008 15.2736 27.6299 15.3723 27.5586C15.4346 27.5135 15.4956 27.4674 15.5587 27.4231C15.6676 27.3466 15.779 27.2728 15.8901 27.1986C15.9449 27.1621 15.9985 27.1243 16.0536 27.0883C16.1985 26.9942 16.3458 26.9031 16.4942 26.8132C16.5173 26.7992 16.5397 26.7843 16.5629 26.7704C16.7346 26.6676 16.9086 26.5678 17.0846 26.4708C17.1448 26.4377 17.2067 26.4066 17.2676 26.3742C17.3845 26.3118 17.501 26.2489 17.6199 26.1891C17.696 26.1508 17.7741 26.1148 17.8509 26.0777C17.9479 26.0307 18.0446 25.9832 18.1428 25.9379C19.9872 27.7003 22.4476 28.6981 25.0014 28.6981C27.5553 28.6981 30.0159 27.7001 31.8603 25.9375C35.4607 27.6044 38.4076 30.5954 40.0074 34.2325C40.2337 34.7469 40.8339 34.9809 41.3486 34.7544C41.863 34.5279 42.0965 33.9271 41.8701 33.4127C40.1202 29.4342 37.0736 26.255 33.2174 24.3358C34.3363 22.694 34.9416 20.7553 34.9416 18.7547C34.9416 13.2718 30.4824 8.81109 25.0014 8.81109C24.4395 8.81109 23.9838 9.26697 23.9838 9.82905C23.9838 10.3911 24.4395 10.847 25.0014 10.847C29.3604 10.847 32.9064 14.3944 32.9064 18.7547C32.9064 20.7044 32.182 22.5818 30.8669 24.0407C30.8668 24.0409 30.8666 24.0411 30.8664 24.0413C29.3648 25.707 27.2271 26.6623 25.0013 26.6623C22.7754 26.6623 20.6376 25.707 19.1361 24.0413C19.136 24.0409 19.1356 24.0407 19.1353 24.0406C17.8204 22.5812 17.0962 20.7042 17.0962 18.7548C17.0962 16.6266 17.9291 14.6301 19.4416 13.1333C19.8412 12.7379 19.8445 12.0933 19.4492 11.6938C19.054 11.2939 18.4097 11.2908 18.0101 11.686C16.1084 13.5675 15.0609 16.0779 15.0609 18.7542C15.0609 20.7527 15.6647 22.6901 16.7817 24.331C16.7717 24.336 16.762 24.3414 16.7522 24.3465C16.6728 24.3862 16.5953 24.4282 16.5166 24.4688C16.396 24.5312 16.2751 24.5933 16.1562 24.6583C16.0721 24.7041 15.9899 24.7523 15.9066 24.7993C15.7955 24.8622 15.6842 24.9248 15.5747 24.9898C15.4897 25.0404 15.4061 25.0926 15.322 25.1444C15.2168 25.2092 15.1117 25.2738 15.008 25.3405C14.9234 25.395 14.8403 25.451 14.7567 25.5066C14.6561 25.5736 14.5557 25.641 14.4567 25.7099C14.3734 25.7679 14.2911 25.8271 14.2089 25.8863C14.1122 25.956 14.0159 26.0261 13.9207 26.0975C13.8391 26.1588 13.7586 26.2209 13.6782 26.2833C13.5849 26.3557 13.4923 26.4287 13.4007 26.5028C13.3213 26.567 13.2427 26.632 13.1643 26.6973C13.0742 26.7726 12.9849 26.8488 12.8963 26.9258C12.8195 26.9925 12.7432 27.0597 12.6675 27.1277C12.5802 27.2063 12.494 27.2857 12.4084 27.3657C12.3344 27.4348 12.2607 27.504 12.1877 27.5744C12.1031 27.6562 12.0198 27.7392 11.9367 27.8225C11.8658 27.8935 11.7949 27.9645 11.7254 28.0366C11.6431 28.1219 11.5624 28.2088 11.4819 28.2956C11.4145 28.3682 11.3467 28.4405 11.2805 28.5143C11.2 28.6039 11.1216 28.6954 11.0429 28.7865C10.9797 28.8598 10.9159 28.9324 10.8538 29.0065C10.7739 29.102 10.6966 29.1994 10.6188 29.2965C10.5609 29.3687 10.5019 29.44 10.4451 29.5131C10.3633 29.6183 10.2843 29.7255 10.2049 29.8324C10.1551 29.8996 10.1038 29.9656 10.055 30.0335C9.9546 30.1726 9.85741 30.3137 9.76108 30.4556C9.73581 30.4929 9.70901 30.5292 9.68391 30.5667C9.564 30.7459 9.44749 30.9271 9.33403 31.1103C9.29485 31.1736 9.25804 31.2382 9.21971 31.3018C9.14628 31.4238 9.0725 31.5456 9.00178 31.6693C8.95768 31.7465 8.91596 31.8251 8.87305 31.9029C8.81114 32.0149 8.7489 32.1265 8.68954 32.2399C8.64544 32.3239 8.60372 32.4089 8.56081 32.4935C8.50552 32.6028 8.45006 32.7119 8.39698 32.8223C8.35475 32.9102 8.31455 32.9991 8.27368 33.0875C8.22348 33.1966 8.17311 33.3055 8.12494 33.4156C8.08525 33.5064 8.04726 33.598 8.0091 33.6894C7.96314 33.7992 7.91752 33.909 7.87376 34.0196C7.83696 34.1126 7.80168 34.2061 7.7664 34.2995C7.72468 34.4105 7.68347 34.5216 7.64378 34.6334C7.6102 34.7283 7.57764 34.8236 7.54541 34.9191C7.50759 35.0313 7.47079 35.1438 7.43517 35.2569C7.40481 35.3531 7.37547 35.4497 7.34664 35.5464C7.31272 35.6606 7.27999 35.7751 7.24827 35.8901C7.22147 35.9871 7.19519 36.0844 7.16992 36.1821C7.1399 36.2983 7.1114 36.415 7.08359 36.5321C7.06035 36.6298 7.03729 36.7274 7.01575 36.8254C6.98963 36.944 6.96538 37.0633 6.94163 37.1827C6.92213 37.2805 6.90228 37.3782 6.88431 37.4764C6.86209 37.5982 6.84208 37.7207 6.82223 37.8434C6.80663 37.9401 6.79018 38.0366 6.7761 38.1337C6.75761 38.2602 6.74201 38.3875 6.72607 38.5147C6.71437 38.6091 6.70148 38.7032 6.69113 38.7979C6.67655 38.9312 6.66535 39.0654 6.65365 39.1996C6.64585 39.2891 6.63652 39.3781 6.63007 39.4681C6.61922 39.6179 6.6121 39.7683 6.6048 39.919C6.60124 39.9938 6.59565 40.0681 6.59293 40.1431C6.58479 40.3691 6.58021 40.5959 6.58021 40.8236C6.58021 41.0695 6.58852 41.3019 6.59853 41.5586C6.6009 41.618 6.60921 41.6757 6.62109 41.732C6.6221 41.7364 6.62261 41.7408 6.62363 41.7452C6.63618 41.8007 6.65382 41.854 6.67502 41.9055C6.67705 41.9106 6.67892 41.9157 6.68112 41.9208C6.703 41.9717 6.72912 42.0202 6.75863 42.0664C6.76236 42.0722 6.76592 42.0779 6.76966 42.0835C6.80001 42.1288 6.83377 42.1714 6.87057 42.2111C6.87328 42.214 6.87515 42.2176 6.87786 42.2204L7.01219 42.3635C7.11361 42.472 7.21503 42.5803 7.32086 42.686C12.1952 47.562 18.5978 50 25.0006 50C31.4034 50 37.806 47.562 42.6803 42.686C42.7862 42.5803 42.8876 42.4719 42.989 42.3635L43.1233 42.2204C47.6328 37.4749 50.0744 31.2525 49.9983 24.6989C49.9225 18.1322 47.3235 11.9583 42.6808 7.31402Z" fill="#FF931A"/>
</svg>
