<svg width="50" height="51" viewBox="0 0 50 51" fill="none" xmlns="http://www.w3.org/2000/svg">
<path d="M48.9825 10.3848C48.4207 10.3848 47.965 10.8404 47.965 11.4022V48.9513H2.03499V3.02132H48.9825C49.5443 3.02132 50 2.56565 50 2.00382C50 1.442 49.5443 0.986328 48.9825 0.986328H1.01749C0.455668 0.986328 0 1.442 0 2.00382V49.9688C0 50.5307 0.455668 50.9863 1.01749 50.9863H48.9825C49.5443 50.9863 50 50.5307 50 49.9688V11.4022C50 10.8403 49.5443 10.3848 48.9825 10.3848Z" fill="#FF931A"/>
<path d="M6.63468 6.60291C6.07286 6.60291 5.61719 7.05857 5.61719 7.6204V37.1036C5.61719 37.6655 6.07286 38.1211 6.63468 38.1211H43.3666C43.9284 38.1211 44.384 37.6655 44.384 37.1036V7.6204C44.384 7.05857 43.9284 6.60291 43.3666 6.60291H6.63468ZM7.65218 8.63789H42.3491V34.5823L31.7147 23.948C31.3176 23.5505 30.673 23.5505 30.276 23.948L27.3386 26.8851L22.0958 21.6425C21.6987 21.245 21.0541 21.245 20.6571 21.6425L10.567 31.7326C10.1695 32.13 10.1695 32.7742 10.567 33.1714C10.9641 33.5689 11.6087 33.5689 12.0057 33.1714L21.3765 23.8008L26.6193 29.0434C27.0164 29.4409 27.661 29.4409 28.058 29.0434L30.9954 26.1062L40.9753 36.0862H7.65218V8.63789Z" fill="#FF931A"/>
</svg>
