<svg width="50" height="50" viewBox="0 0 50 50" fill="none" xmlns="http://www.w3.org/2000/svg">
<path d="M40.7251 34.25C40.3279 33.8525 39.6833 33.8525 39.2863 34.25C38.8888 34.6473 38.8888 35.2915 39.2863 35.6887L41.2642 37.6667C41.7378 38.1404 41.9988 38.7702 41.9988 39.44C41.9988 40.1101 41.7378 40.7399 41.2642 41.2137L41.2138 41.2641C40.74 41.7377 40.1102 41.9985 39.4402 41.9985C38.7703 41.9985 38.1405 41.7377 37.6667 41.2639L35.6888 39.2862C35.3461 38.9437 34.8094 38.8901 34.4056 39.1589C32.5597 40.3877 30.5262 41.2308 28.3613 41.6648C27.886 41.7601 27.5439 42.1774 27.5439 42.6625V45.457C27.5439 46.8401 26.4188 47.9653 25.0358 47.9653H24.9646C23.5816 47.9653 22.4565 46.8401 22.4565 45.457V42.6625C22.4565 42.1776 22.1144 41.7601 21.6389 41.6648C19.474 41.2307 17.4405 40.3877 15.5946 39.1589C15.191 38.8903 14.6541 38.9435 14.3112 39.2862L12.3334 41.2641C11.8598 41.7377 11.2298 41.9985 10.5599 41.9985C9.88989 41.9985 9.26006 41.7377 8.78641 41.2641L8.73605 41.2137C8.2624 40.7399 8.00141 40.1101 8.00141 39.44C8.00141 38.7702 8.2624 38.1404 8.73605 37.6665L10.7139 35.6887C11.0566 35.346 11.11 34.8089 10.8414 34.4055C9.61245 32.5596 8.76928 30.5259 8.33515 28.3612C8.23985 27.8859 7.82234 27.5438 7.3375 27.5438H4.54312C3.16017 27.5438 2.03499 26.4186 2.03499 25.0359V24.9645C2.03499 23.5815 3.16017 22.4563 4.54312 22.4563H7.33767C7.8225 22.4563 8.24002 22.1143 8.33532 21.639C8.76962 19.4739 9.61279 17.4404 10.8416 15.5947C11.1102 15.1911 11.057 14.654 10.7141 14.3113L8.73605 12.3336C8.2624 11.8598 8.00141 11.23 8.00141 10.56C8.00141 9.88994 8.2624 9.26011 8.73605 8.7863L8.78641 8.73593C9.26006 8.26229 9.88989 8.0013 10.5599 8.0013C11.2298 8.0013 11.8598 8.26229 12.3334 8.7361L14.3112 10.7138C14.7087 11.1109 15.353 11.1111 15.7502 10.7136C16.1475 10.3163 16.1475 9.67203 15.7502 9.2747L13.7725 7.29719C12.9144 6.43894 11.7734 5.96631 10.5601 5.96631C9.34654 5.96631 8.20559 6.43894 7.34767 7.29719L7.29731 7.34756C6.43922 8.20565 5.96659 9.34643 5.96659 10.56C5.96659 11.7735 6.43922 12.9144 7.29731 13.7725L8.69874 15.1738C7.70889 16.8104 6.97934 18.5695 6.52266 20.4212H4.54312C2.03804 20.4212 0 22.4592 0 24.9643V25.0357C0 27.5406 2.03804 29.5786 4.54312 29.5786H6.52249C6.979 31.4303 7.70838 33.1891 8.69857 34.826L7.29731 36.2275C6.43905 37.0856 5.96659 38.2263 5.96659 39.4399C5.96659 40.6534 6.43922 41.7944 7.29731 42.6523L7.34767 42.7026C8.20576 43.5609 9.34654 44.0334 10.5601 44.0334C11.7736 44.0334 12.9144 43.5609 13.7725 42.7028L15.1739 41.3014C16.8109 42.2914 18.5696 43.0208 20.4215 43.4773V45.4567C20.4215 47.9617 22.4595 50 24.9646 50H25.0358C27.5409 50 29.5789 47.9617 29.5789 45.4567V43.4773C31.4308 43.0208 33.1895 42.2914 34.8263 41.3014L36.2278 42.7026C37.0858 43.5609 38.2266 44.0334 39.4402 44.0334C40.6537 44.0334 41.7946 43.5609 42.6526 42.7026L42.7029 42.6523C43.5612 41.7942 44.0338 40.6534 44.0338 39.4399C44.0338 38.2263 43.5612 37.0854 42.7029 36.2276L40.7251 34.25Z" fill="#FF931A"/>
<path d="M45.4575 20.4215H43.478C43.0215 18.5696 42.2919 16.8107 41.3021 15.1741L42.7035 13.7726C44.475 12.0014 44.475 9.11913 42.7035 7.34767L42.6531 7.29731C41.795 6.43905 40.6543 5.96642 39.4407 5.96642C38.2272 5.96642 37.0862 6.43905 36.2285 7.29714L34.8269 8.69874C33.1901 7.70872 31.4312 6.97934 29.5795 6.52282V4.54329C29.5793 2.03821 27.5415 0 25.0362 0H24.965C22.4599 0 20.4219 2.03821 20.4219 4.54329V7.33784C20.4219 7.89967 20.8775 8.35533 21.4394 8.35533C22.0014 8.35533 22.4569 7.89967 22.4569 7.33784V4.54329C22.4569 3.16017 23.582 2.03499 24.965 2.03499H25.0362C26.4192 2.03499 27.5443 3.16017 27.5443 4.54329V7.33784C27.5443 7.82251 27.8866 8.24002 28.3617 8.33549C30.5266 8.76979 32.5601 9.61279 34.406 10.8416C34.8093 11.1099 35.3463 11.057 35.6892 10.7141L37.6672 8.73622C38.1409 8.26257 38.7707 8.00159 39.4406 8.00159C40.1106 8.00159 40.7404 8.26257 41.2142 8.73622L41.2646 8.78658C41.7382 9.2604 41.9992 9.89023 41.9992 10.5602C41.9992 11.2303 41.7382 11.8601 41.2646 12.3337L39.2868 14.3114C38.944 14.6541 38.8904 15.1912 39.1592 15.5948C40.3878 17.4404 41.2312 19.4738 41.6653 21.6391C41.7608 22.1144 42.1781 22.4565 42.663 22.4565H45.4575C46.8405 22.4565 47.9656 23.5816 47.9656 24.9646V25.036C47.9656 26.4188 46.8405 27.5439 45.4575 27.5439H42.663C42.1011 27.5439 41.6455 27.9996 41.6455 28.5614C41.6455 29.1233 42.1011 29.5789 42.663 29.5789H45.4575C47.9626 29.5789 50.0006 27.5409 50.0006 25.036V24.9646C50.0006 22.4594 47.9626 20.4215 45.4575 20.4215Z" fill="#FF931A"/>
<path d="M25.0007 28.8333C24.1119 28.8333 23.2781 28.5382 22.5892 27.9798C22.1529 27.6264 21.5121 27.693 21.1581 28.1295C20.8044 28.566 20.8714 29.2069 21.3079 29.5606C22.3481 30.404 23.6596 30.8683 25.0007 30.8683C28.2362 30.8683 30.8686 28.236 30.8686 25.0002C30.8686 21.7648 28.2363 19.1323 25.0007 19.1323C21.7651 19.1323 19.1328 21.7646 19.1328 25.0002C19.1328 25.562 19.5885 26.0177 20.1503 26.0177C20.7121 26.0177 21.1678 25.562 21.1678 25.0002C21.1678 22.8867 22.8872 21.1673 25.0007 21.1673C27.1142 21.1673 28.8336 22.8867 28.8336 25.0002C28.8336 27.1137 27.1142 28.8333 25.0007 28.8333Z" fill="#FF931A"/>
</svg>
