<svg width="50" height="51" viewBox="0 0 50 51" fill="none" xmlns="http://www.w3.org/2000/svg">
<path d="M33.855 30.7461C33.7478 30.4109 33.8664 30.0456 34.1503 29.8375L40.4964 25.1816C41.5067 24.4404 41.9095 23.1914 41.5222 21.9998C41.135 20.8079 40.0751 20.0341 38.8221 20.0284L30.9513 19.9919C30.5992 19.9902 30.2885 19.7647 30.1783 19.4304L27.7114 11.9559C27.3186 10.766 26.2554 9.99724 25.0023 9.99707C23.7493 9.99707 22.6858 10.766 22.2931 11.9557L21.1811 15.3235C21.0049 15.857 21.2946 16.4326 21.8282 16.6086C22.3619 16.7851 22.9371 16.4951 23.1135 15.9615L24.2255 12.5937C24.3974 12.0726 24.8634 12.0321 25.0023 12.0321C25.141 12.0321 25.607 12.0726 25.779 12.5937L28.2459 20.0684C28.6309 21.2343 29.7142 22.0213 30.9418 22.0271L38.8126 22.0635C39.3614 22.0661 39.544 22.4968 39.5867 22.6287C39.6296 22.7607 39.7351 23.2164 39.2927 23.5409L32.9464 28.1968C31.9565 28.9231 31.5428 30.1967 31.9167 31.3661L34.3151 38.8654C34.4823 39.3882 34.1291 39.695 34.0168 39.7764C33.9045 39.858 33.5038 40.0993 33.0583 39.7786L26.669 35.1806C25.6722 34.4634 24.3328 34.4634 23.336 35.1806L16.9455 39.7795C16.5 40.1 16.0991 39.8588 15.987 39.7774C15.8747 39.6959 15.5215 39.3892 15.6885 38.8666L18.0862 31.3661C18.4602 30.1969 18.0462 28.9233 17.0565 28.197L10.7106 23.5411C10.2681 23.2165 10.3736 22.7607 10.4165 22.6289C10.4594 22.497 10.6421 22.0662 11.1907 22.0637L19.062 22.0272C19.6238 22.0245 20.0773 21.567 20.0748 21.005C20.072 20.4447 19.6171 19.9923 19.0573 19.9923C19.0557 19.9923 19.054 19.9923 19.0525 19.9923L11.1812 20.0287C9.92813 20.0345 8.86824 20.8083 8.48109 22.0001C8.09393 23.1919 8.49652 24.4409 9.50672 25.1822L15.8527 29.838C16.1364 30.0463 16.2551 30.4114 16.1479 30.7467L13.7503 38.2471C13.3688 39.4406 13.7773 40.6877 14.7911 41.4241C15.2998 41.7936 15.8835 41.9784 16.4676 41.9784C17.0474 41.9784 17.6275 41.7961 18.1344 41.4315L24.5248 36.8326C24.8105 36.6269 25.1946 36.6269 25.4804 36.8326L31.8697 41.4307C32.8869 42.1626 34.1991 42.1599 35.213 41.4232C36.227 40.6867 36.6353 39.4396 36.2536 38.2459L33.855 30.7461Z" fill="#FF931A"/>
<path d="M25 0.986328C11.215 0.986328 0 12.2013 0 25.9863C0 39.7713 11.215 50.9863 25 50.9863C25.5618 50.9863 26.0175 50.5307 26.0175 49.9688C26.0175 49.407 25.5618 48.9513 25 48.9513C12.3371 48.9515 2.03499 38.6494 2.03499 25.9863C2.03499 13.3233 12.3371 3.02132 25 3.02132C37.6629 3.02132 47.965 13.3234 47.965 25.9863C47.965 33.8685 43.9934 41.11 37.3407 45.3574C36.867 45.6597 36.7281 46.2889 37.0305 46.7625C37.3329 47.2362 37.9619 47.3751 38.4357 47.0727C45.6768 42.4496 50 34.5669 50 25.9865C50.0002 12.2013 38.7852 0.986328 25 0.986328Z" fill="#FF931A"/>
</svg>
