<svg width="69" height="6" viewBox="0 0 69 6" fill="none" xmlns="http://www.w3.org/2000/svg">
<path d="M58.927 5.5C56.4712 5.5 55.2203 4.41042 54.1166 3.44909C53.1201 2.58093 52.3329 1.89519 50.6508 1.89519C48.9686 1.89519 48.1814 2.58093 47.1847 3.44909C46.0812 4.41042 44.8303 5.5 42.3744 5.5C39.9184 5.5 38.6677 4.41042 37.564 3.44909C36.5676 2.58093 35.7805 1.89519 34.0983 1.89519C32.4163 1.89519 31.6293 2.58093 30.6328 3.44909C29.5293 4.41042 28.2784 5.5 25.8225 5.5C23.3668 5.5 22.1163 4.41042 21.0128 3.44909C20.0165 2.58093 19.2294 1.89519 17.5476 1.89519C15.8656 1.89519 15.0785 2.58093 14.082 3.44909C12.9785 4.41042 11.7276 5.5 9.27186 5.5C6.81592 5.5 5.56504 4.41042 4.46136 3.44909C3.46488 2.58093 2.67781 1.89519 0.995654 1.89519C0.445887 1.89519 0 1.47098 0 0.947595C0 0.424365 0.445887 0 0.995654 0C3.45144 0 4.70231 1.08958 5.80599 2.05091C6.80248 2.91907 7.58971 3.60481 9.27186 3.60481C10.9539 3.60481 11.7409 2.91907 12.7374 2.05107C13.8409 1.08958 15.0918 0 17.5476 0C20.0032 0 21.2539 1.08973 22.3574 2.05107C23.3537 2.91923 24.1406 3.60481 25.8225 3.60481C27.5046 3.60481 28.2917 2.91907 29.2882 2.05107C30.3917 1.08958 31.6426 0 34.0983 0C36.5543 0 37.805 1.08958 38.9087 2.05107C39.9052 2.91907 40.6924 3.60481 42.3744 3.60481C44.0567 3.60481 44.8438 2.91907 45.8403 2.05107C46.9439 1.08958 48.1948 0 50.6508 0C53.1067 0 54.3576 1.08958 55.4613 2.05107C56.4577 2.91907 57.2448 3.60481 58.927 3.60481C60.6095 3.60481 61.3967 2.91907 62.3935 2.05091C63.4972 1.08958 64.7482 0 67.2043 0C67.7541 0 68.2 0.424365 68.2 0.947595C68.2 1.47098 67.7541 1.89519 67.2043 1.89519C65.5219 1.89519 64.7346 2.58093 63.7378 3.44909C62.6341 4.41042 61.3833 5.5 58.927 5.5Z" fill="#FF931A"/>
</svg>
