<?xml version="1.0" encoding="utf-8"?>
<!-- Generator: Adobe Illustrator 23.0.1, SVG Export Plug-In . SVG Version: 6.00 Build 0)  -->
<svg version="1.1" id="Слой_1" xmlns="http://www.w3.org/2000/svg" xmlns:xlink="http://www.w3.org/1999/xlink" x="0px" y="0px"
	 viewBox="0 0 2567.3 494.5" style="enable-background:new 0 0 2567.3 494.5;" xml:space="preserve">
<style type="text/css">
	.st0{fill:#FFFFFF;}
	.st1{fill:url(#SVGID_1_);}
	.st2{fill:#FF1A31;}
	.st3{fill:#00527B;}
</style>
<title>РосКвартал_</title>
<polygon class="st0" points="2339.1,108.1 2323.7,123.5 2407,228.4 2555,37.1 2542.7,24.8 2407,148.2 "/>
<radialGradient id="SVGID_1_" cx="2433.1001" cy="-1129.9" r="145" gradientTransform="matrix(1 0 0 -1 -13.7 -984.9)" gradientUnits="userSpaceOnUse">
	<stop  offset="0" style="stop-color:#FF5655"/>
	<stop  offset="0.2" style="stop-color:#FF5353"/>
	<stop  offset="0.35" style="stop-color:#FF494D"/>
	<stop  offset="0.49" style="stop-color:#FF3842"/>
	<stop  offset="0.63" style="stop-color:#FF2133"/>
	<stop  offset="0.65" style="stop-color:#FF1C30"/>
	<stop  offset="1" style="stop-color:#FF1A31"/>
</radialGradient>
<path class="st1" d="M2537,60.4l-130,167.9l-83.3-104.9l15.4-15.4l67.9,40.1l115.5-105c-56.7-58-149.8-59-207.8-2.3
	s-59,149.8-2.3,207.8s149.8,59,207.8,2.3C2572,200.2,2579.1,119.3,2537,60.4L2537,60.4z"/>
<path class="st2" d="M0,427.9V172.5c25.2-2.5,61.2-3.7,108.1-3.7c40.7,0,68.5,6.1,83.5,18.1s22.4,35,22.4,68.9
	c0,33.3-6.9,56-20.7,68.1s-38.5,18.1-74,18.1c-13,0-26-0.7-38.9-2.2v88.1L0,427.9L0,427.9z M80.3,285.4h26c10.9,0,18.1-2,21.8-5.9
	c3.7-3.9,5.6-11.8,5.6-23.7c0-12.1-1.9-20.2-5.6-24.2s-11-6.1-21.8-6.1h-26V285.4z"/>
<path class="st2" d="M333.2,237.6c37.8,0,64.4,7.3,80,22c15.6,14.7,23.3,40,23.3,76.1c0,35.5-7.8,60.5-23.3,75
	c-15.5,14.4-42.2,21.7-80,21.7c-38,0-64.8-7.2-80.3-21.7s-23.3-39.5-23.3-75c0-36,7.8-61.4,23.3-76.1
	C268.4,245,295.2,237.6,333.2,237.6z M333.2,290.2c-9.1,0-15.1,2.8-18,8.5s-4.3,18-4.3,37c0,18.3,1.4,30.2,4.3,35.7s8.8,8.3,18,8.3
	c8.9,0,14.7-2.8,17.6-8.3s4.3-17.5,4.3-35.7c0-19-1.4-31.3-4.3-37S342,290.2,333.2,290.2z"/>
<path class="st2" d="M627.8,368.3l7,48.5c-19.7,10.4-46.6,15.5-80.7,15.5c-36.3,0-61.8-7.3-76.4-21.8c-14.7-14.6-22-39.7-22-75.5
	s7.4-60.9,22.2-75.5s40.5-21.8,77-21.8c32.6,0,58.4,4.6,77.4,13.7l-7.8,48.1h-56.3c-12.1,0-20.3,2.4-24.6,7.2
	c-4.3,4.8-6.5,14.3-6.5,28.3c0,14.3,2.2,23.9,6.5,28.7s12.5,7.2,24.6,7.2C592.4,370.9,612.3,370,627.8,368.3z"/>
<path class="st3" d="M804.7,293.5v2.2c24.9,3.7,41.3,11.5,49.2,23.3s19.1,43.4,33.7,94.8c1.7,6.2,3.1,10.9,4.1,14.1H808
	c-13.1-48.6-21.5-77.2-25.2-85.9c-4.9-10.9-11.2-17.3-18.9-19.2c-3.7-1-8.9-1.5-15.5-1.5h-8.5c1.9,7.6,2.9,15.4,3,23.3v83.3h-80.3
	V172.5h80.3v64.4c0.1,11-1.2,21.9-3.7,32.6h8.1c15.3,0,25.7-4.8,31.1-14.4s12.7-33.6,21.8-71.8c1.2-4.7,2.1-8.3,2.6-10.7h81.5
	c-14.3,47.9-22,73.3-23,76.3c-6.4,17.8-14.4,29.5-24.1,35.2C830.4,288.4,819.6,291.6,804.7,293.5z"/>
<path class="st3" d="M1056.8,331.7v1.9c17.3,1,29.7,5.6,37.2,13.7s11.3,19.7,11.3,34.8c0,18.8-6.3,31.6-18.9,38.7
	s-33.4,10.5-62.6,10.5c-48.9,0-86.6-0.7-113.3-2.2V242.8c23.9-1.5,58-2.2,102.2-2.2c32.1,0,54.3,3.4,66.6,10.2
	c12.3,6.8,18.5,19.8,18.5,39.1c0,13.3-3.2,23.4-9.6,30.2S1071.4,330.7,1056.8,331.7z M983.5,313.9h26.3c6.4,0,10.7-0.9,13-2.8
	s3.3-5.2,3.3-10.2c0-5.2-1.2-8.6-3.5-10.4c-2.3-1.8-6.8-2.6-13.5-2.6h-25.5L983.5,313.9L983.5,313.9z M983.5,382.7h26.7
	c6.9,0,11.7-1.1,14.3-3.3c2.6-2.2,3.9-6.5,3.9-13c0-5.9-1.3-9.9-3.9-12s-7.5-3.1-14.6-3.1h-26.3L983.5,382.7L983.5,382.7z"/>
<path class="st3" d="M1138.3,296.1l-7-49.2c34.8-6.3,70.1-9.4,105.5-9.3c27.4,0,47.7,5.7,61.1,17c13.4,11.3,20,30.9,20,58.5v114.8
	h-61.8l-7-25.9c-16.3,20.7-37.6,31.1-64,31.1c-18.3,0-33.4-4.6-45.5-13.7s-18.1-22.1-18.1-38.9V362c0-14.8,5.4-26.5,16.3-35
	s25.8-12.8,44.8-12.8h57.7v-1.5c-0.2-6.7-2-11.4-5.2-14.3s-8.8-4.3-16.7-4.3C1191.1,294.3,1164.4,294.9,1138.3,296.1z M1196.7,363.1
	v5.9c0,7.7,5.2,11.5,15.5,11.5c8.1,0,17.4-3.1,27.8-9.3v-19.6h-29.2C1201.4,351.7,1196.7,355.5,1196.7,363.1z"/>
<path class="st3" d="M1412.2,242.8l6.3,25.2c5.9-8.4,15.2-15.4,27.8-21.1c12.7-5.7,26.4-8.6,40.3-8.5c23.4,0,40.4,8.4,50.9,25.2
	c10.5,16.8,15.8,41.5,15.7,74c0,36.5-5.6,61.6-16.7,75.1s-28.9,20.4-53.3,20.4c-23.9,0-42.8-5.2-56.6-15.5c1,17.5,1.4,31,1.1,40.3
	v36.6H1350V242.8H1412.2z M1427.7,300.9v76.6c7.8,3.1,16,4.8,24.4,4.8c8.1,0,13.7-2.6,16.7-8s4.4-17.3,4.4-36.1s-1.4-30.8-4.3-36.1
	s-8.1-8-15.7-8C1445.1,294.3,1436.6,296.5,1427.7,300.9L1427.7,300.9z"/>
<path class="st3" d="M1758.3,300.6h-56.6v127.3h-77.4V300.6h-56.6v-57.7h190.6V300.6z"/>
<path class="st3" d="M1784.9,296.1l-7-49.2c34.8-6.3,70.1-9.4,105.5-9.3c27.4,0,47.7,5.7,61.1,17c13.4,11.3,20,30.9,20,58.5v114.8
	h-61.8l-7-25.9c-16.3,20.7-37.6,31.1-64,31.1c-18.3,0-33.4-4.6-45.5-13.7s-18.1-22.1-18.1-38.9V362c0-14.8,5.4-26.5,16.3-35
	s25.8-12.8,44.8-12.8h57.7v-1.5c-0.3-6.7-2-11.4-5.2-14.3s-8.8-4.3-16.7-4.3C1837.7,294.3,1811.1,294.9,1784.9,296.1z M1843.4,363.1
	v5.9c0,7.7,5.2,11.5,15.5,11.5c8.1,0,17.4-3.1,27.8-9.3v-19.6h-29.2C1848.1,351.7,1843.4,355.5,1843.4,363.1z"/>
<path class="st3" d="M2192.8,242.8v185.1h-77.4V293.2h-9.6c-9.6,0-14.8,4.3-15.5,13c-2.5,22.2-5.6,46.5-9.3,72.9
	c-2.2,16.3-8.1,28.9-17.6,37.9c-9.1,8.8-20.9,14.1-33.5,15c-13.9,0.9-27.8,0.2-41.5-2.2l-7.8-56.6c1.7-0.2,4.4-0.5,8.1-0.7
	c2.7-0.1,5.4-0.4,8.1-0.9c2.1-0.5,4.1-1.1,6.1-1.9c2.2-0.8,4.1-2.2,5.4-4.1c1.4-2.2,2.4-4.7,3-7.2c3-11.8,5.7-34.3,8.1-67.4
	c2.2-32.1,19.1-48.1,50.7-48.1L2192.8,242.8L2192.8,242.8z"/>
</svg>
