<svg width="160" height="160" viewBox="0 0 160 160" fill="none" xmlns="http://www.w3.org/2000/svg">
<path d="M150.047 53.7932H9.9531C4.45793 53.7932 0 49.3353 0 43.8401V11.3325C0 5.83733 4.45793 1.37939 9.9531 1.37939H150.044C155.542 1.37939 160 5.83733 160 11.3325V43.8373C160 49.3353 155.542 53.7932 150.047 53.7932Z" fill="#556080"/>
<path d="M150.047 106.207H9.9531C4.45793 106.207 0 101.749 0 96.2539V63.7463C0 58.2511 4.45793 53.7932 9.9531 53.7932H150.044C155.542 53.7932 159.997 58.2511 159.997 63.7463V96.2511C160 101.749 155.542 106.207 150.047 106.207Z" fill="#424A60"/>
<path d="M150.047 158.621H9.9531C4.45793 158.621 0 154.163 0 148.667V116.16C0 110.665 4.45793 106.207 9.9531 106.207H150.044C155.542 106.207 159.997 110.665 159.997 116.16V148.665C160 154.163 155.542 158.621 150.047 158.621Z" fill="#556080"/>
<path d="M135.173 26.2067C136.696 26.2067 137.931 24.9716 137.931 23.4481C137.931 21.9245 136.696 20.6895 135.173 20.6895C133.649 20.6895 132.414 21.9245 132.414 23.4481C132.414 24.9716 133.649 26.2067 135.173 26.2067Z" fill="#7383BF"/>
<path d="M124.138 26.2067C125.661 26.2067 126.896 24.9716 126.896 23.4481C126.896 21.9245 125.661 20.6895 124.138 20.6895C122.614 20.6895 121.379 21.9245 121.379 23.4481C121.379 24.9716 122.614 26.2067 124.138 26.2067Z" fill="#7383BF"/>
<path d="M140.69 34.4828C142.214 34.4828 143.449 33.2477 143.449 31.7242C143.449 30.2007 142.214 28.9656 140.69 28.9656C139.167 28.9656 137.932 30.2007 137.932 31.7242C137.932 33.2477 139.167 34.4828 140.69 34.4828Z" fill="#7383BF"/>
<path d="M129.655 34.4828C131.179 34.4828 132.414 33.2477 132.414 31.7242C132.414 30.2007 131.179 28.9656 129.655 28.9656C128.132 28.9656 126.896 30.2007 126.896 31.7242C126.896 33.2477 128.132 34.4828 129.655 34.4828Z" fill="#7383BF"/>
<path d="M113.102 26.2067C114.626 26.2067 115.861 24.9716 115.861 23.4481C115.861 21.9245 114.626 20.6895 113.102 20.6895C111.579 20.6895 110.344 21.9245 110.344 23.4481C110.344 24.9716 111.579 26.2067 113.102 26.2067Z" fill="#7383BF"/>
<path d="M118.62 34.4828C120.143 34.4828 121.379 33.2477 121.379 31.7242C121.379 30.2007 120.143 28.9656 118.62 28.9656C117.096 28.9656 115.861 30.2007 115.861 31.7242C115.861 33.2477 117.096 34.4828 118.62 34.4828Z" fill="#7383BF"/>
<path d="M102.069 26.2067C103.593 26.2067 104.828 24.9716 104.828 23.4481C104.828 21.9245 103.593 20.6895 102.069 20.6895C100.546 20.6895 99.3105 21.9245 99.3105 23.4481C99.3105 24.9716 100.546 26.2067 102.069 26.2067Z" fill="#7383BF"/>
<path d="M107.587 34.4828C109.11 34.4828 110.345 33.2477 110.345 31.7242C110.345 30.2007 109.11 28.9656 107.587 28.9656C106.063 28.9656 104.828 30.2007 104.828 31.7242C104.828 33.2477 106.063 34.4828 107.587 34.4828Z" fill="#7383BF"/>
<path d="M91.034 26.2067C92.5576 26.2067 93.7926 24.9716 93.7926 23.4481C93.7926 21.9245 92.5576 20.6895 91.034 20.6895C89.5105 20.6895 88.2754 21.9245 88.2754 23.4481C88.2754 24.9716 89.5105 26.2067 91.034 26.2067Z" fill="#7383BF"/>
<path d="M96.5516 34.4828C98.0751 34.4828 99.3102 33.2477 99.3102 31.7242C99.3102 30.2007 98.0751 28.9656 96.5516 28.9656C95.028 28.9656 93.793 30.2007 93.793 31.7242C93.793 33.2477 95.028 34.4828 96.5516 34.4828Z" fill="#7383BF"/>
<path d="M135.173 78.6205C136.696 78.6205 137.931 77.3854 137.931 75.8619C137.931 74.3383 136.696 73.1033 135.173 73.1033C133.649 73.1033 132.414 74.3383 132.414 75.8619C132.414 77.3854 133.649 78.6205 135.173 78.6205Z" fill="#7383BF"/>
<path d="M124.138 78.6205C125.661 78.6205 126.896 77.3854 126.896 75.8619C126.896 74.3383 125.661 73.1033 124.138 73.1033C122.614 73.1033 121.379 74.3383 121.379 75.8619C121.379 77.3854 122.614 78.6205 124.138 78.6205Z" fill="#7383BF"/>
<path d="M140.69 86.8966C142.214 86.8966 143.449 85.6616 143.449 84.138C143.449 82.6145 142.214 81.3794 140.69 81.3794C139.167 81.3794 137.932 82.6145 137.932 84.138C137.932 85.6616 139.167 86.8966 140.69 86.8966Z" fill="#7383BF"/>
<path d="M129.655 86.8966C131.179 86.8966 132.414 85.6616 132.414 84.138C132.414 82.6145 131.179 81.3794 129.655 81.3794C128.132 81.3794 126.896 82.6145 126.896 84.138C126.896 85.6616 128.132 86.8966 129.655 86.8966Z" fill="#7383BF"/>
<path d="M113.102 78.6205C114.626 78.6205 115.861 77.3854 115.861 75.8619C115.861 74.3383 114.626 73.1033 113.102 73.1033C111.579 73.1033 110.344 74.3383 110.344 75.8619C110.344 77.3854 111.579 78.6205 113.102 78.6205Z" fill="#7383BF"/>
<path d="M118.62 86.8966C120.143 86.8966 121.379 85.6616 121.379 84.138C121.379 82.6145 120.143 81.3794 118.62 81.3794C117.096 81.3794 115.861 82.6145 115.861 84.138C115.861 85.6616 117.096 86.8966 118.62 86.8966Z" fill="#7383BF"/>
<path d="M102.069 78.6205C103.593 78.6205 104.828 77.3854 104.828 75.8619C104.828 74.3383 103.593 73.1033 102.069 73.1033C100.546 73.1033 99.3105 74.3383 99.3105 75.8619C99.3105 77.3854 100.546 78.6205 102.069 78.6205Z" fill="#7383BF"/>
<path d="M107.587 86.8966C109.11 86.8966 110.345 85.6616 110.345 84.138C110.345 82.6145 109.11 81.3794 107.587 81.3794C106.063 81.3794 104.828 82.6145 104.828 84.138C104.828 85.6616 106.063 86.8966 107.587 86.8966Z" fill="#7383BF"/>
<path d="M91.034 78.6205C92.5576 78.6205 93.7926 77.3854 93.7926 75.8619C93.7926 74.3383 92.5576 73.1033 91.034 73.1033C89.5105 73.1033 88.2754 74.3383 88.2754 75.8619C88.2754 77.3854 89.5105 78.6205 91.034 78.6205Z" fill="#7383BF"/>
<path d="M96.5516 86.8966C98.0751 86.8966 99.3102 85.6616 99.3102 84.138C99.3102 82.6145 98.0751 81.3794 96.5516 81.3794C95.028 81.3794 93.793 82.6145 93.793 84.138C93.793 85.6616 95.028 86.8966 96.5516 86.8966Z" fill="#7383BF"/>
<path d="M135.173 131.035C136.696 131.035 137.931 129.8 137.931 128.276C137.931 126.752 136.696 125.517 135.173 125.517C133.649 125.517 132.414 126.752 132.414 128.276C132.414 129.8 133.649 131.035 135.173 131.035Z" fill="#7383BF"/>
<path d="M124.138 131.035C125.661 131.035 126.896 129.8 126.896 128.276C126.896 126.752 125.661 125.517 124.138 125.517C122.614 125.517 121.379 126.752 121.379 128.276C121.379 129.8 122.614 131.035 124.138 131.035Z" fill="#7383BF"/>
<path d="M140.69 139.31C142.214 139.31 143.449 138.075 143.449 136.552C143.449 135.028 142.214 133.793 140.69 133.793C139.167 133.793 137.932 135.028 137.932 136.552C137.932 138.075 139.167 139.31 140.69 139.31Z" fill="#7383BF"/>
<path d="M129.655 139.31C131.179 139.31 132.414 138.075 132.414 136.552C132.414 135.028 131.179 133.793 129.655 133.793C128.132 133.793 126.896 135.028 126.896 136.552C126.896 138.075 128.132 139.31 129.655 139.31Z" fill="#7383BF"/>
<path d="M113.102 131.035C114.626 131.035 115.861 129.8 115.861 128.276C115.861 126.752 114.626 125.517 113.102 125.517C111.579 125.517 110.344 126.752 110.344 128.276C110.344 129.8 111.579 131.035 113.102 131.035Z" fill="#7383BF"/>
<path d="M118.62 139.31C120.143 139.31 121.379 138.075 121.379 136.552C121.379 135.028 120.143 133.793 118.62 133.793C117.096 133.793 115.861 135.028 115.861 136.552C115.861 138.075 117.096 139.31 118.62 139.31Z" fill="#7383BF"/>
<path d="M102.069 131.035C103.593 131.035 104.828 129.8 104.828 128.276C104.828 126.752 103.593 125.517 102.069 125.517C100.546 125.517 99.3105 126.752 99.3105 128.276C99.3105 129.8 100.546 131.035 102.069 131.035Z" fill="#7383BF"/>
<path d="M107.587 139.31C109.11 139.31 110.345 138.075 110.345 136.552C110.345 135.028 109.11 133.793 107.587 133.793C106.063 133.793 104.828 135.028 104.828 136.552C104.828 138.075 106.063 139.31 107.587 139.31Z" fill="#7383BF"/>
<path d="M91.034 131.035C92.5576 131.035 93.7926 129.8 93.7926 128.276C93.7926 126.752 92.5576 125.517 91.034 125.517C89.5105 125.517 88.2754 126.752 88.2754 128.276C88.2754 129.8 89.5105 131.035 91.034 131.035Z" fill="#7383BF"/>
<path d="M96.5516 139.31C98.0751 139.31 99.3102 138.075 99.3102 136.552C99.3102 135.028 98.0751 133.793 96.5516 133.793C95.028 133.793 93.793 135.028 93.793 136.552C93.793 138.075 95.028 139.31 96.5516 139.31Z" fill="#7383BF"/>
<path d="M33.6787 22.1136L25.1158 33.1729L19.629 26.2633L20.6434 25.249L25.1158 27.8903L32.7236 20.9741C30.9737 19.1855 28.5991 18.1443 26.0981 18.0689C23.597 17.9934 21.1639 18.8897 19.3094 20.5695C17.455 22.2493 16.3232 24.5822 16.1517 27.0785C15.9802 29.5748 16.7822 32.0406 18.3895 33.9582C19.9969 35.8759 22.2845 37.0965 24.7723 37.3639C27.2602 37.6312 29.755 36.9245 31.733 35.3921C33.7111 33.8597 35.0187 31.6207 35.3815 29.1449C35.7442 26.6692 35.134 24.1491 33.6787 22.1136Z" fill="#7383BF"/>
<path d="M33.6787 74.3717L25.1158 85.431L19.629 78.5214L20.6434 77.507L25.1158 80.1483L32.7236 73.2321C30.9737 71.4436 28.5991 70.4023 26.0981 70.3269C23.597 70.2515 21.1639 71.1477 19.3094 72.8276C17.455 74.5074 16.3232 76.8403 16.1517 79.3366C15.9802 81.8329 16.7822 84.2986 18.3895 86.2163C19.9969 88.134 22.2845 89.3546 24.7723 89.6219C27.2602 89.8893 29.755 89.1826 31.733 87.6502C33.7111 86.1178 35.0187 83.8787 35.3815 81.403C35.7442 78.9272 35.134 76.4072 33.6787 74.3717Z" fill="#7383BF"/>
<path d="M33.6787 126.63L25.1158 137.689L19.629 130.779L20.6434 129.765L25.1158 132.406L32.7236 125.49C30.9737 123.702 28.5991 122.66 26.0981 122.585C23.597 122.51 21.1639 123.406 19.3094 125.086C17.455 126.765 16.3232 129.098 16.1517 131.595C15.9802 134.091 16.7822 136.557 18.3895 138.474C19.9969 140.392 22.2845 141.613 24.7723 141.88C27.2602 142.147 29.755 141.441 31.733 139.908C33.7111 138.376 35.0187 136.137 35.3815 133.661C35.7442 131.185 35.134 128.665 33.6787 126.63Z" fill="#7383BF"/>
</svg>
